<?xml version="1.0" encoding="UTF-8" standalone="no" ?>
<COLLADA xmlns="http://www.collada.org/2005/11/COLLADASchema" version="1.4.1">
  <asset>
    <contributor>
      <author>Assimp</author>
      <authoring_tool>THREE.GLTFExporter</authoring_tool>
    </contributor>
    <created>2025-11-10T17:22:04</created>
    <modified>2025-11-10T17:22:04</modified>
    <unit name="meter" meter="1" />
    <up_axis>Y_UP</up_axis>
  </asset>
  <library_images>
  </library_images>
  <library_effects>
    <effect id="Material-fx" name="Material">
      <profile_COMMON>
        <technique sid="standard">
          <phong>
            <emission>
              <color sid="emission">0   0   0   1</color>
            </emission>
            <diffuse>
              <color sid="diffuse">1   1   1   1</color>
            </diffuse>
            <shininess>
              <float sid="shininess">250</float>
            </shininess>
            <transparency>
              <float sid="transparency">1</float>
            </transparency>
          </phong>
        </technique>
      </profile_COMMON>
    </effect>
    <effect id="material_1-fx" name="">
      <profile_COMMON>
        <technique sid="standard">
          <phong>
            <emission>
              <color sid="emission">0   0   0   1</color>
            </emission>
            <diffuse>
              <color sid="diffuse">1   1   1   1</color>
            </diffuse>
            <shininess>
              <float sid="shininess">0</float>
            </shininess>
            <transparency>
              <float sid="transparency">1</float>
            </transparency>
          </phong>
        </technique>
      </profile_COMMON>
    </effect>
  </library_effects>
  <library_materials>
    <material id="Material" name="Material">
      <instance_effect url="#Material-fx"/>
    </material>
    <material id="material_1" name="">
      <instance_effect url="#material_1-fx"/>
    </material>
  </library_materials>
  <library_geometries>
    <geometry id="meshesQ0S" name="meshes[0]" >
      <mesh>
        <source id="meshesQ0S-positions" name="meshesQ0S-positions">
          <float_array id="meshesQ0S-positions-array" count="1728"> 0.733315229 0 -0.0965428501 0.713666379 0.0739642903 -0.0939558968 0.719824314 0.0739642903 6.29290184e-08 0.739642918 0 6.46616272e-08 0.659983993 0.128109694 -0.0868884623 0.66567862 0.128109694 5.81954716e-08 0.586652219 0.147928596 -0.077234067 0.591714323 0.147928596 5.17293195e-08 0.513320506 0.128109694 -0.0675796568 0.517750323 0.128109694 4.52631497e-08 0.459638208 0.0739642903 -0.0605122186 0.463604689 0.0739642903 4.05295992e-08 0.439989388 0 -0.0579258502 0.443785697 0 3.87969799e-08 0.459638208 -0.0739642903 -0.0605122186 0.463604689 -0.0739642903 4.05295992e-08 0.513320506 -0.128109694 -0.0675796568 0.517750323 -0.128109694 4.52631497e-08 0.586652219 -0.147928596 -0.077234067 0.591714323 -0.147928596 5.17293195e-08 0.659983993 -0.128109694 -0.0868884623 0.66567862 -0.128109694 5.81954716e-08 0.713666379 -0.0739642903 -0.0939558968 0.719824314 -0.0739642903 6.29290184e-08 0.714440107 0 -0.191433698 0.695296884 0.0739642903 -0.186304197 0.642996311 0.128109694 -0.172289997 0.571552277 0.147928596 -0.153146893 0.500108123 0.128109694 -0.134003699 0.447807699 0.0739642903 -0.119989596 0.428663999 0 -0.114859998 0.447807699 -0.0739642903 -0.119989596 0.500108123 -0.128109694 -0.134003699 0.571552277 -0.147928596 -0.153146893 0.642996311 -0.128109694 -0.172289997 0.695296884 -0.0739642903 -0.186304197 0.683340788 0 -0.283048898 0.665030718 0.0739642903 -0.275464892 0.615006387 0.128109694 -0.254744291 0.546673 0.147928596 -0.226438999 0.478338987 0.128109694 -0.198134303 0.428314805 0.0739642903 -0.177413702 0.410004914 0 -0.169829696 0.428314805 -0.0739642903 -0.177413702 0.478338987 -0.128109694 -0.198134303 0.546673 -0.147928596 -0.226438999 0.615006387 -0.128109694 -0.254744291 0.665030718 -0.0739642903 -0.275464892 0.640549779 0 -0.369821489 0.623385787 0.0739642903 -0.359912008 0.576494873 0.128109694 -0.332839191 0.512439489 0.147928596 -0.295857102 0.448384702 0.128109694 -0.258875012 0.401493013 0.0739642903 -0.2318023 0.384329706 0 -0.221892804 0.401493013 -0.0739642903 -0.2318023 0.448384702 -0.128109694 -0.258875012 0.512439489 -0.147928596 -0.295857102 0.576494873 -0.128109694 -0.332839191 0.623385787 -0.0739642903 -0.359912008 0.586798429 0 -0.450266093 0.571074903 0.0739642903 -0.4382011 0.52811873 0.128109694 -0.405239105 0.469438404 0.147928596 -0.360212594 0.410758615 0.128109694 -0.315186113 0.367801905 0.0739642903 -0.282224596 0.352079004 0 -0.270159602 0.367801905 -0.0739642903 -0.282224596 0.410758615 -0.128109694 -0.315186113 0.469438404 -0.147928596 -0.360212594 0.52811873 -0.128109694 -0.405239105 0.571074903 -0.0739642903 -0.4382011 0.523006201 0 -0.523006797 0.508992791 0.0739642903 -0.508992672 0.470705807 0.128109694 -0.470705807 0.418405414 0.147928596 -0.418405414 0.366104305 0.128109694 -0.36610499 0.327818096 0.0739642903 -0.327818006 0.313803911 0 -0.313803911 0.327818096 -0.0739642903 -0.327818006 0.366104305 -0.128109694 -0.36610499 0.418405414 -0.147928596 -0.418405414 0.470705807 -0.128109694 -0.470705807 0.508992791 -0.0739642903 -0.508992672 0.450266302 0 -0.586797774 0.438201189 0.0739642903 -0.571074903 0.405239701 0.128109694 -0.528118074 0.36021319 0.147928596 -0.469438314 0.315186203 0.128109694 -0.410758615 0.282224715 0.0739642903 -0.367801905 0.270159692 0 -0.352078795 0.282224715 -0.0739642903 -0.367801905 0.315186203 -0.128109694 -0.410758615 0.36021319 -0.147928596 -0.469438314 0.405239701 -0.128109694 -0.528118074 0.438201189 -0.0739642903 -0.571074903 0.369821608 0 -0.640549779 0.359912097 0.0739642903 -0.623385787 0.33283931 0.128109694 -0.576494813 0.295857191 0.147928596 -0.51243943 0.258875102 0.128109694 -0.448384494 0.231802404 0.0739642903 -0.401493013 0.221892893 0 -0.384329706 0.231802404 -0.0739642903 -0.401493013 0.258875102 -0.128109694 -0.448384494 0.295857191 -0.147928596 -0.51243943 0.33283931 -0.128109694 -0.576494813 0.359912097 -0.0739642903 -0.623385787 0.283049613 0 -0.683340788 0.275465012 0.0739642903 -0.665030718 0.254744411 0.128109694 -0.615006387 0.226439595 0.147928596 -0.546672404 0.198134497 0.128109694 -0.478338391 0.177413806 0.0739642903 -0.428314805 0.169829696 0 -0.410004914 0.177413806 -0.0739642903 -0.428314805 0.198134497 -0.128109694 -0.478338391 0.226439595 -0.147928596 -0.546672404 0.254744411 -0.128109694 -0.615006387 0.275465012 -0.0739642903 -0.665030718 0.191433907 0 -0.714440107 0.186304301 0.0739642903 -0.695296884 0.172290102 0.128109694 -0.642996311 0.153146997 0.147928596 -0.571552277 0.134003803 0.128109694 -0.500108123 0.119989701 0.0739642903 -0.447807699 0.114860103 0 -0.428663999 0.119989701 -0.0739642903 -0.447807699 0.134003803 -0.128109694 -0.500108123 0.153146997 -0.147928596 -0.571552277 0.172290102 -0.128109694 -0.642996311 0.186304301 -0.0739642903 -0.695296884 0.0965430066 0 -0.733315229 0.0939560309 0.0739642903 -0.713666379 0.086888589 0.128109694 -0.659983993 0.0772341788 0.147928596 -0.586652219 0.0675797537 0.128109694 -0.513320506 0.0605122894 0.0739642903 -0.459638208 0.0579259209 0 -0.439989388 0.0605122894 -0.0739642903 -0.459638208 0.0675797537 -0.128109694 -0.513320506 0.0772341788 -0.147928596 -0.586652219 0.086888589 -0.128109694 -0.659983993 0.0939560309 -0.0739642903 -0.713666379 1.020369e-07 4.45548097e-15 -0.739642918 6.29290184e-08 0.0739642903 -0.719824314 5.81954716e-08 0.128109694 -0.66567862 5.17293195e-08 0.147928596 -0.591714323 4.52631497e-08 0.128109694 -0.517750323 4.05295992e-08 0.0739642903 -0.463604689 6.12221527e-08 2.67328807e-15 -0.443785697 4.05295992e-08 -0.0739642903 -0.463604689 4.52631497e-08 -0.128109694 -0.517750323 5.17293195e-08 -0.147928596 -0.591714323 5.81954716e-08 -0.128109694 -0.66567862 6.29290184e-08 -0.0739642903 -0.719824314 -0.0965428501 0 -0.733315229 -0.0939558968 0.0739642903 -0.713666379 -0.0868884623 0.128109694 -0.659983397 -0.077234067 0.147928596 -0.586652219 -0.0675802529 0.128109694 -0.513320506 -0.0605128184 0.0739642903 -0.459638208 -0.0579258502 0 -0.439989388 -0.0605128184 -0.0739642903 -0.459638208 -0.0675802529 -0.128109694 -0.513320506 -0.077234067 -0.147928596 -0.586652219 -0.0868884623 -0.128109694 -0.659983397 -0.0939558968 -0.0739642903 -0.713666379 -0.191433698 0 -0.714440107 -0.186304197 0.0739642903 -0.695296884 -0.172289997 0.128109694 -0.642996311 -0.153146893 0.147928596 -0.571552277 -0.134003699 0.128109694 -0.500108123 -0.119989596 0.0739642903 -0.447807699 -0.114859998 0 -0.428663999 -0.119989596 -0.0739642903 -0.447807699 -0.134003699 -0.128109694 -0.500108123 -0.153146893 -0.147928596 -0.571552277 -0.172289997 -0.128109694 -0.642996311 -0.186304197 -0.0739642903 -0.695296884 -0.283048898 0 -0.683340788 -0.275464892 0.0739642903 -0.665030718 -0.254744291 0.128109694 -0.615006387 -0.226439595 0.147928596 -0.546673 -0.198134303 0.128109694 -0.478338987 -0.177413702 0.0739642903 -0.428314805 -0.169829696 0 -0.410004914 -0.177413702 -0.0739642903 -0.428314805 -0.198134303 -0.128109694 -0.478338987 -0.226439595 -0.147928596 -0.546673 -0.254744291 -0.128109694 -0.615006387 -0.275464892 -0.0739642903 -0.665030718 -0.369821489 0 -0.640549779 -0.359912008 0.0739642903 -0.623386621 -0.332839191 0.128109694 -0.576494873 -0.295857102 0.147928596 -0.512440026 -0.258875012 0.128109694 -0.448384702 -0.2318023 0.0739642903 -0.401493013 -0.221892804 0 -0.384329706 -0.2318023 -0.0739642903 -0.401493013 -0.258875012 -0.128109694 -0.448384702 -0.295857102 -0.147928596 -0.512440026 -0.332839191 -0.128109694 -0.576494873 -0.359912008 -0.0739642903 -0.623386621 -0.450266093 0 -0.586798429 -0.4382011 0.0739642903 -0.571074903 -0.405239701 0.128109694 -0.528118074 -0.360212594 0.147928596 -0.469438404 -0.315186113 0.128109694 -0.410758615 -0.282224596 0.0739642903 -0.367801905 -0.270159602 0 -0.352079004 -0.282224596 -0.0739642903 -0.367801905 -0.315186113 -0.128109694 -0.410758615 -0.360212594 -0.147928596 -0.469438404 -0.405239701 -0.128109694 -0.528118074 -0.4382011 -0.0739642903 -0.571074903 -0.523006797 0 -0.523006201 -0.508992672 0.0739642903 -0.508992791 -0.470705807 0.128109694 -0.470705807 -0.418405414 0.147928596 -0.418405414 -0.36610499 0.128109694 -0.366104305 -0.327818006 0.0739642903 -0.3278175 -0.313803911 0 -0.313803911 -0.327818006 -0.0739642903 -0.3278175 -0.36610499 -0.128109694 -0.366104305 -0.418405414 -0.147928596 -0.418405414 -0.470705807 -0.128109694 -0.470705807 -0.508992672 -0.0739642903 -0.508992791 -0.586798429 0 -0.450266302 -0.571074903 0.0739642903 -0.438201189 -0.528118074 0.128109694 -0.405239701 -0.469438314 0.147928596 -0.360212713 -0.410758615 0.128109694 -0.315186203 -0.367801905 0.0739642903 -0.282224715 -0.352078795 0 -0.270159692 -0.367801905 -0.0739642903 -0.282224715 -0.410758615 -0.128109694 -0.315186203 -0.469438314 -0.147928596 -0.360212713 -0.528118074 -0.128109694 -0.405239701 -0.571074903 -0.0739642903 -0.438201189 -0.640549779 0 -0.369821608 -0.623385787 0.0739642903 -0.359912097 -0.576494217 0.128109694 -0.33283931 -0.51243943 0.147928596 -0.295857191 -0.448384494 0.128109694 -0.258875102 -0.401493013 0.0739642903 -0.231802404 -0.384329706 0 -0.221892893 -0.401493013 -0.0739642903 -0.231802404 -0.448384494 -0.128109694 -0.258875102 -0.51243943 -0.147928596 -0.295857191 -0.576494217 -0.128109694 -0.33283931 -0.623385787 -0.0739642903 -0.359912097 -0.683340788 0 -0.283048987 -0.665030718 0.0739642903 -0.275465012 -0.615006387 0.128109694 -0.254744411 -0.546673 0.147928596 -0.226439103 -0.478338987 0.128109694 -0.198134497 -0.428314805 0.0739642903 -0.177413806 -0.410004914 0 -0.169829696 -0.428314805 -0.0739642903 -0.177413806 -0.478338987 -0.128109694 -0.198134497 -0.546673 -0.147928596 -0.226439103 -0.615006387 -0.128109694 -0.254744411 -0.665030718 -0.0739642903 -0.275465012 -0.714440107 0 -0.191433907 -0.695296884 0.0739642903 -0.186304301 -0.642996311 0.128109694 -0.172290102 -0.571552277 0.147928596 -0.153146997 -0.500108123 0.128109694 -0.134003803 -0.447807699 0.0739642903 -0.119989701 -0.428663999 0 -0.114860103 -0.447807699 -0.0739642903 -0.119989701 -0.500108123 -0.128109694 -0.134003803 -0.571552277 -0.147928596 -0.153146997 -0.642996311 -0.128109694 -0.172290102 -0.695296884 -0.0739642903 -0.186304301 -0.733315229 0 -0.0965430066 -0.713666379 0.0739642903 -0.0939560309 -0.659983397 0.128109694 -0.086888589 -0.586652219 0.147928596 -0.0772341788 -0.513320506 0.128109694 -0.0675803274 -0.459638208 0.0739642903 -0.0605129004 -0.439989388 0 -0.0579259209 -0.459638208 -0.0739642903 -0.0605129004 -0.513320506 -0.128109694 -0.0675803274 -0.586652219 -0.147928596 -0.0772341788 -0.659983397 -0.128109694 -0.086888589 -0.713666379 -0.0739642903 -0.0939560309 -0.739642918 0 -6.46616272e-08 -0.719824314 0.0739642903 -6.29290184e-08 -0.66567862 0.128109694 -5.81954716e-08 -0.591714323 0.147928596 -5.17293195e-08 -0.517750323 0.128109694 -4.52631497e-08 -0.463604689 0.0739642903 -4.05295992e-08 -0.443785697 0 -3.87969799e-08 -0.463604689 -0.0739642903 -4.05295992e-08 -0.517750323 -0.128109694 -4.52631497e-08 -0.591714323 -0.147928596 -5.17293195e-08 -0.66567862 -0.128109694 -5.81954716e-08 -0.719824314 -0.0739642903 -6.29290184e-08 -0.733315229 0 0.0965428501 -0.713666379 0.0739642903 0.0939558968 -0.659983397 0.128109694 0.0868884623 -0.586652219 0.147928596 0.077234067 -0.513320506 0.128109694 0.0675802529 -0.459638208 0.0739642903 0.0605128184 -0.439989388 0 0.0579258502 -0.459638208 -0.0739642903 0.0605128184 -0.513320506 -0.128109694 0.0675802529 -0.586652219 -0.147928596 0.077234067 -0.659983397 -0.128109694 0.0868884623 -0.713666379 -0.0739642903 0.0939558968 -0.714440107 0 0.191433698 -0.695296884 0.0739642903 0.186304197 -0.642996311 0.128109694 0.172289997 -0.571552277 0.147928596 0.153146893 -0.500108123 0.128109694 0.134003699 -0.447807699 0.0739642903 0.119989596 -0.428663999 0 0.114859998 -0.447807699 -0.0739642903 0.119989596 -0.500108123 -0.128109694 0.134003699 -0.571552277 -0.147928596 0.153146893 -0.642996311 -0.128109694 0.172289997 -0.695296884 -0.0739642903 0.186304197 -0.683341384 0 0.283048898 -0.665031374 0.0739642903 0.275464296 -0.615007281 0.128109694 0.254743695 -0.546673 0.147928596 0.226438999 -0.478338987 0.128109694 0.198134303 -0.428314805 0.0739642903 0.177413702 -0.410004914 0 0.1698291 -0.428314805 -0.0739642903 0.177413702 -0.478338987 -0.128109694 0.198134303 -0.546673 -0.147928596 0.226438999 -0.615007281 -0.128109694 0.254743695 -0.665031374 -0.0739642903 0.275464296 -0.640549779 0 0.369821489 -0.623386621 0.0739642903 0.359912008 -0.576494873 0.128109694 0.332839191 -0.512440026 0.147928596 0.295857102 -0.448384702 0.128109694 0.258875012 -0.401493013 0.0739642903 0.2318023 -0.384329706 0 0.221892804 -0.401493013 -0.0739642903 0.2318023 -0.448384702 -0.128109694 0.258875012 -0.512440026 -0.147928596 0.295857102 -0.576494873 -0.128109694 0.332839191 -0.623386621 -0.0739642903 0.359912008 -0.586798429 0 0.450266093 -0.571074903 0.0739642903 0.4382011 -0.528118074 0.128109694 0.405239701 -0.469438404 0.147928596 0.360212594 -0.410758615 0.128109694 0.315186113 -0.367801905 0.0739642903 0.282224596 -0.352079004 0 0.270159602 -0.367801905 -0.0739642903 0.282224596 -0.410758615 -0.128109694 0.315186113 -0.469438404 -0.147928596 0.360212594 -0.528118074 -0.128109694 0.405239701 -0.571074903 -0.0739642903 0.4382011 -0.523006797 0 0.523006082 -0.508992791 0.0739642903 0.508992672 -0.470705807 0.128109694 0.470705807 -0.418405414 0.147928596 0.418405414 -0.36610499 0.128109694 0.366104305 -0.327818096 0.0739642903 0.32781741 -0.313803911 0 0.313803911 -0.327818096 -0.0739642903 0.32781741 -0.36610499 -0.128109694 0.366104305 -0.418405414 -0.147928596 0.418405414 -0.470705807 -0.128109694 0.470705807 -0.508992791 -0.0739642903 0.508992672 -0.450266302 0 0.586797774 -0.438201696 0.0739642903 0.571074903 -0.405239701 0.128109694 0.528118074 -0.36021319 0.147928596 0.469438314 -0.315186709 0.128109694 0.410758615 -0.282224715 0.0739642903 0.367801905 -0.270159692 0 0.352078795 -0.282224715 -0.0739642903 0.367801905 -0.315186709 -0.128109694 0.410758615 -0.36021319 -0.147928596 0.469438314 -0.405239701 -0.128109694 0.528118074 -0.438201696 -0.0739642903 0.571074903 -0.369821608 0 0.640549779 -0.359912097 0.0739642903 0.623386621 -0.33283931 0.128109694 0.576494813 -0.295857191 0.147928596 0.512440026 -0.258875102 0.128109694 0.448384494 -0.231802404 0.0739642903 0.401493013 -0.221892893 0 0.384329706 -0.231802404 -0.0739642903 0.401493013 -0.258875102 -0.128109694 0.448384494 -0.295857191 -0.147928596 0.512440026 -0.33283931 -0.128109694 0.576494813 -0.359912097 -0.0739642903 0.623386621 -0.283048987 0 0.683340788 -0.275465012 0.0739642903 0.665030718 -0.254744411 0.128109694 0.615006387 -0.226439595 0.147928596 0.546673 -0.198134497 0.128109694 0.478338987 -0.177413806 0.0739642903 0.428314805 -0.169829696 0 0.410004914 -0.177413806 -0.0739642903 0.428314805 -0.198134497 -0.128109694 0.478338987 -0.226439595 -0.147928596 0.546673 -0.254744411 -0.128109694 0.615006387 -0.275465012 -0.0739642903 0.665030718 -0.191433907 0 0.714440107 -0.186304301 0.0739642903 0.695296884 -0.172290698 0.128109694 0.642995894 -0.153146997 0.147928596 0.571552277 -0.134003803 0.128109694 0.500108123 -0.119989701 0.0739642903 0.447807699 -0.114860699 0 0.428663999 -0.119989701 -0.0739642903 0.447807699 -0.134003803 -0.128109694 0.500108123 -0.153146997 -0.147928596 0.571552277 -0.172290698 -0.128109694 0.642995894 -0.186304301 -0.0739642903 0.695296884 -0.0965430066 0 0.733315229 -0.0939566121 0.0739642903 0.713666379 -0.0868891925 0.128109694 0.659983397 -0.0772347674 0.147928596 0.586652219 -0.0675803274 0.128109694 0.513320506 -0.0605129004 0.0739642903 0.459638208 -0.0579259209 0 0.439989388 -0.0605129004 -0.0739642903 0.459638208 -0.0675803274 -0.128109694 0.513320506 -0.0772347674 -0.147928596 0.586652219 -0.0868891925 -0.128109694 0.659983397 -0.0939566121 -0.0739642903 0.713666379 -1.020369e-07 -4.45548097e-15 0.739642918 -6.29290184e-08 0.0739642903 0.719824314 -5.81954716e-08 0.128109694 0.66567862 -5.17293195e-08 0.147928596 0.591714323 -4.52631497e-08 0.128109694 0.517750323 -4.05295992e-08 0.0739642903 0.463604689 -6.12221527e-08 -2.67328807e-15 0.443785697 -4.05295992e-08 -0.0739642903 0.463604689 -4.52631497e-08 -0.128109694 0.517750323 -5.17293195e-08 -0.147928596 0.591714323 -5.81954716e-08 -0.128109694 0.66567862 -6.29290184e-08 -0.0739642903 0.719824314 0.0965428501 0 0.733315229 0.0939558968 0.0739642903 0.713666379 0.0868884623 0.128109694 0.659983993 0.077234067 0.147928596 0.586652219 0.0675796568 0.128109694 0.513320506 0.0605122186 0.0739642903 0.459638208 0.0579258502 0 0.439989388 0.0605122186 -0.0739642903 0.459638208 0.0675796568 -0.128109694 0.513320506 0.077234067 -0.147928596 0.586652219 0.0868884623 -0.128109694 0.659983993 0.0939558968 -0.0739642903 0.713666379 0.191433102 0 0.714440107 0.186303601 0.0739642903 0.695296884 0.172289997 0.128109694 0.642996311 0.153146893 0.147928596 0.571552277 0.134003207 0.128109694 0.500108123 0.119989596 0.0739642903 0.447807699 0.114859998 0 0.428663999 0.119989596 -0.0739642903 0.447807699 0.134003207 -0.128109694 0.500108123 0.153146893 -0.147928596 0.571552277 0.172289997 -0.128109694 0.642996311 0.186303601 -0.0739642903 0.695296884 0.283049494 0 0.683340788 0.275464892 0.0739642903 0.665030718 0.254744291 0.128109694 0.615006387 0.226439595 0.147928596 0.546672523 0.198134303 0.128109694 0.478338391 0.177413702 0.0739642903 0.428314805 0.169829696 0 0.410004914 0.177413702 -0.0739642903 0.428314805 0.198134303 -0.128109694 0.478338391 0.226439595 -0.147928596 0.546672523 0.254744291 -0.128109694 0.615006387 0.275464892 -0.0739642903 0.665030718 0.369821489 0 0.640549779 0.359912008 0.0739642903 0.623385787 0.332839191 0.128109694 0.576494873 0.295857102 0.147928596 0.512439489 0.258875012 0.128109694 0.448384702 0.2318023 0.0739642903 0.401493013 0.221892804 0 0.384329706 0.2318023 -0.0739642903 0.401493013 0.258875012 -0.128109694 0.448384702 0.295857102 -0.147928596 0.512439489 0.332839191 -0.128109694 0.576494873 0.359912008 -0.0739642903 0.623385787 0.450266093 0 0.586798429 0.4382011 0.0739642903 0.571075499 0.405239105 0.128109694 0.52811873 0.360212594 0.147928596 0.469438404 0.315186113 0.128109694 0.410758615 0.282224596 0.0739642903 0.367801905 0.270159602 0 0.352079004 0.282224596 -0.0739642903 0.367801905 0.315186113 -0.128109694 0.410758615 0.360212594 -0.147928596 0.469438404 0.405239105 -0.128109694 0.52811873 0.4382011 -0.0739642903 0.571075499 0.523006082 0 0.523006797 0.508992076 0.0739642903 0.508992791 0.470705807 0.128109694 0.470706403 0.418404788 0.147928596 0.418405414 0.366104305 0.128109694 0.36610499 0.32781741 0.0739642903 0.327818096 0.313803911 0 0.313803911 0.32781741 -0.0739642903 0.327818096 0.366104305 -0.128109694 0.36610499 0.418404788 -0.147928596 0.418405414 0.470705807 -0.128109694 0.470706403 0.508992076 -0.0739642903 0.508992791 0.586798429 0 0.450266302 0.571074903 0.0739642903 0.438201189 0.52811861 0.128109694 0.405239195 0.469438314 0.147928596 0.360212713 0.410758615 0.128109694 0.315186203 0.367801905 0.0739642903 0.282224715 0.352078795 0 0.270159692 0.367801905 -0.0739642903 0.282224715 0.410758615 -0.128109694 0.315186203 0.469438314 -0.147928596 0.360212713 0.52811861 -0.128109694 0.405239195 0.571074903 -0.0739642903 0.438201189 0.640549779 0 0.369821608 0.623385787 0.0739642903 0.359912097 0.576494813 0.128109694 0.33283931 0.51243943 0.147928596 0.295857191 0.448384494 0.128109694 0.258875102 0.401493013 0.0739642903 0.231802404 0.384329706 0 0.221892893 0.401493013 -0.0739642903 0.231802404 0.448384494 -0.128109694 0.258875102 0.51243943 -0.147928596 0.295857191 0.576494813 -0.128109694 0.33283931 0.623385787 -0.0739642903 0.359912097 0.683340788 0 0.283049613 0.665030718 0.0739642903 0.275465012 0.615006387 0.128109694 0.254744411 0.546672404 0.147928596 0.226439595 0.478338391 0.128109694 0.198134497 0.428314805 0.0739642903 0.177413806 0.410004914 0 0.169829696 0.428314805 -0.0739642903 0.177413806 0.478338391 -0.128109694 0.198134497 0.546672404 -0.147928596 0.226439595 0.615006387 -0.128109694 0.254744411 0.665030718 -0.0739642903 0.275465012 0.714440107 0 0.191433296 0.695296884 0.0739642903 0.186304301 0.642996311 0.128109694 0.172290102 0.571552277 0.147928596 0.153146997 0.500108123 0.128109694 0.134003207 0.447807699 0.0739642903 0.119989701 0.428663999 0 0.114860103 0.447807699 -0.0739642903 0.119989701 0.500108123 -0.128109694 0.134003207 0.571552277 -0.147928596 0.153146997 0.642996311 -0.128109694 0.172290102 0.695296884 -0.0739642903 0.186304301 0.733315229 0 0.0965430066 0.713666379 0.0739642903 0.0939560309 0.659983993 0.128109694 0.086888589 0.586652219 0.147928596 0.0772341788 0.513320506 0.128109694 0.0675797537 0.459638208 0.0739642903 0.0605122894 0.439989388 0 0.0579259209 0.459638208 -0.0739642903 0.0605122894 0.513320506 -0.128109694 0.0675797537 0.586652219 -0.147928596 0.0772341788 0.659983993 -0.128109694 0.086888589 0.713666379 -0.0739642903 0.0939560309 </float_array>
          <technique_common>
            <accessor count="576" offset="0" source="#meshesQ0S-positions-array" stride="3">
              <param name="X" type="float" />
              <param name="Y" type="float" />
              <param name="Z" type="float" />
            </accessor>
          </technique_common>
        </source>
        <source id="meshesQ0S-normals" name="meshesQ0S-normals">
          <float_array id="meshesQ0S-normals-array" count="1728"> 0.991444826 2.42170529e-07 -0.130526394 0.85817045 0.500105262 -0.115923271 0.865959346 0.500105917 -0.00291874609 1 0 -6.44070663e-09 0.494948179 0.866076469 -0.0702694878 0.499885917 0.866076469 -0.00506425928 -0.000764249184 0.999982893 -0.00580386305 -2.46860566e-07 0.999982893 -0.00585406739 -0.496270508 0.866076291 0.0602279454 -0.499886334 0.866076231 -0.00506516267 -0.858932555 0.500104904 0.110136084 -0.865958989 0.500106514 -0.0029168136 -0.991444707 2.83391216e-07 0.130527213 -1 -5.15256859e-09 0 -0.858170033 -0.500105381 0.115925662 -0.865958929 -0.500106633 0.00291681173 -0.494948983 -0.866076052 0.0702696294 -0.499886334 -0.866076231 0.00506516267 0.000764166936 -0.999982893 0.00580410007 -2.52003559e-07 -0.999982893 0.00585406553 0.496270329 -0.866076529 -0.0602261275 0.499885917 -0.866076469 0.00506426115 0.858932197 -0.500105262 -0.11013715 0.865959346 -0.500105917 0.00291873561 0.965925395 -4.84341115e-07 -0.258820683 0.835696816 0.500105679 -0.226947546 0.481541246 0.866076589 -0.13427338 -0.00151465647 0.999982834 -0.00565503025 -0.484164894 0.866075873 0.124486737 -0.837207437 0.500106692 0.22130762 -0.965926111 2.7823873e-07 0.25881809 -0.835697532 -0.500106633 0.226942793 -0.481542557 -0.866076231 0.134271264 0.00151501619 -0.999982893 0.00565429823 0.484163582 -0.866076171 -0.124489583 0.837207377 -0.500105619 -0.221310183 0.923879683 -1.16963281e-06 -0.382683098 0.798924148 0.500107467 -0.334084868 0.459897071 0.866075933 -0.19597739 -0.0022399954 0.999982893 -0.00540839229 -0.463772744 0.866076231 0.186619312 -0.801158309 0.500106692 0.328692347 -0.923879445 -1.07688686e-06 0.382683635 -0.798924804 -0.500105262 0.334086657 -0.45989567 -0.866076648 0.195977554 0.00224058423 -0.999982893 0.00540828658 0.463772476 -0.866076469 -0.186618984 0.801158845 -0.500105739 -0.328692466 0.866026103 -7.16207694e-07 -0.499998748 0.748483419 0.500107288 -0.435505807 0.430383235 0.866075635 -0.254329115 -0.00292769377 0.999982893 -0.00506928284 -0.435445428 0.866076469 0.245558262 -0.751400709 0.500105739 0.430454642 -0.866024137 1.8033974e-07 0.500002146 -0.748482883 -0.500105977 0.435508221 -0.430381238 -0.86607635 0.254330039 0.00292693172 -0.999982834 0.00507028401 0.435447067 -0.866076112 -0.245556623 0.75140208 -0.500106096 -0.43045187 0.793353319 1.47878825e-06 -0.608761489 0.685235739 0.500105798 -0.529477239 0.393502682 0.866076648 -0.308329105 -0.00356387976 0.999982893 -0.004644203 -0.399669856 0.866076291 0.300292939 -0.688790381 0.500105083 0.524845362 -0.793354273 9.32614569e-07 0.608760238 -0.685236096 -0.500106275 0.529476345 -0.3935045 -0.866075873 0.308328986 0.00356314541 -0.999982893 0.00464444049 0.399670213 -0.866075814 -0.300293952 0.688788056 -0.500108182 -0.524845481 0.707106113 5.71934777e-07 -0.707107484 0.610262036 0.500106037 -0.6143893 0.349891216 0.866076648 -0.357053757 -0.00413911091 0.999982893 -0.00413997704 -0.3570548 0.866076112 0.349891394 -0.614388645 0.500106692 0.610262156 -0.707106411 2.98849073e-07 0.707107127 -0.610262156 -0.50010699 0.614388406 -0.349891603 -0.866076052 0.357054859 0.00413993699 -0.999982893 0.00413914537 0.357054114 -0.866076469 -0.349891216 0.614388943 -0.500106633 -0.610261917 0.608761728 -1.40665099e-06 -0.79335314 0.524846554 0.500107169 -0.688787997 0.300294161 0.866075873 -0.399669886 -0.00464399811 0.999982893 -0.00356366998 -0.30832842 0.866076112 0.393504411 -0.529476166 0.500106633 0.685235977 -0.608760595 -9.78988055e-07 0.793353975 -0.524845958 -0.500105441 0.688789725 -0.30029276 -0.866076291 0.399670035 0.00464468636 -0.999982893 0.00356334099 0.308329225 -0.866076589 -0.393502831 0.529477239 -0.500105143 -0.685236216 0.500000834 -4.79189396e-07 -0.866024911 0.430452198 0.50010711 -0.751401186 0.245556816 0.866076112 -0.435446888 -0.00507012289 0.999982834 -0.00292692473 -0.254329145 0.866076231 0.430381924 -0.4355084 0.500105083 0.74848336 -0.500002921 -4.37968168e-07 0.866023719 -0.430454642 -0.500105262 0.751401067 -0.245557547 -0.866076052 0.43544662 0.00506974384 -0.999982893 0.00292740297 0.254329026 -0.866075933 -0.430382639 0.435506701 -0.500107169 -0.748482943 0.382683158 1.16448109e-06 -0.923879623 0.328692138 0.500106752 -0.801158369 0.186618939 0.866076648 -0.463772148 -0.00540812546 0.999982893 -0.00224038516 -0.195978761 0.866075754 0.459896863 -0.334087789 0.50010401 0.798925102 -0.382683456 1.12325972e-06 0.923879504 -0.328692317 -0.500105262 0.801159263 -0.186619982 -0.866075575 0.463773698 0.00540805794 -0.999982893 0.00224006292 0.195977584 -0.866076291 -0.459896386 0.334085047 -0.500108361 -0.798923492 0.258820027 8.29563419e-07 -0.965925574 0.221310019 0.500105739 -0.837207317 0.124489799 0.866076231 -0.484163433 -0.00565459952 0.999982893 -0.00151525019 -0.134272724 0.866075873 0.481542736 -0.226942793 0.500106633 0.835697532 -0.25881812 -3.40069505e-07 0.965926051 -0.221308812 -0.500105977 0.837207496 -0.124488153 -0.866076112 0.484164119 0.0056549618 -0.999982834 0.00151484914 0.134273365 -0.866076589 -0.481541246 0.226947144 -0.500106096 -0.835696638 0.130526438 -2.11255141e-07 -0.991444826 0.110137209 0.500105381 -0.858932137 0.0602261499 0.866076589 -0.49627021 -0.00580409495 0.999982893 -0.000764187542 -0.0702696219 0.866075933 0.494949192 -0.115925662 0.500105381 0.858170033 -0.130527228 -2.88543731e-07 0.991444707 -0.110136099 -0.500104904 0.858932555 -0.0602279268 -0.866076291 0.496270508 0.00580386957 -0.999982893 0.000764244003 0.0702695101 -0.866076469 -0.494948208 0.115923323 -0.500105262 -0.85817045 9.01698805e-09 0 -1 -0.00291874423 0.500105917 -0.865959346 -0.00506535452 0.866076946 -0.499885052 -0.00585439894 0.999982834 -1.13144409e-07 -0.0050652544 0.866076231 0.499886334 -0.00291707297 0.500106454 0.865959048 -1.30102336e-07 9.78987913e-08 1 0.00291661592 -0.500106633 0.865958929 0.00506498804 -0.866076231 0.499886334 0.00585404178 -0.999982893 2.67432256e-07 0.00506309979 -0.86607635 -0.499886125 0.00291795144 -0.500106633 -0.865958929 -0.130526394 2.47323214e-07 -0.991444826 -0.115923963 0.500106752 -0.858169496 -0.070269376 0.866076946 -0.494947433 -0.00580366375 0.999982893 0.000763663033 0.0602280684 0.866076231 0.496270657 0.110136598 0.500105202 0.858932316 0.130527407 2.73086073e-07 0.991444707 0.11592593 -0.500105739 0.858169794 0.070270054 -0.866075873 0.494949162 0.00580379972 -0.999982893 -0.000764707103 -0.0602260455 -0.866077125 -0.496269315 -0.110136218 -0.500106871 -0.858931422 -0.258820683 -4.8949363e-07 -0.965925395 -0.226946652 0.500106514 -0.835696518 -0.134272382 0.86607641 -0.481541872 -0.00565498602 0.999982834 0.00151458697 0.124487109 0.866075873 0.484164745 0.221308112 0.500106812 0.837207198 0.258818448 1.5457708e-08 0.965925992 0.226943493 -0.500106633 0.835697353 0.134271547 -0.866076171 0.481542528 0.00565449754 -0.999982893 -0.00151548942 -0.124488249 -0.866076648 -0.484163076 -0.221310183 -0.500105619 -0.837207377 -0.382681936 1.6488211e-07 -0.92388016 -0.334083378 0.500106335 -0.798925519 -0.195976198 0.86607635 -0.459896773 -0.00540869823 0.999982893 0.00223933929 0.186618984 0.866076469 0.463772476 0.328692496 0.500106752 0.80115819 0.382683486 -1.09234441e-06 0.923879504 0.334086627 -0.500105381 0.798924744 0.195977405 -0.866076767 0.459895551 0.00540801091 -0.999982893 -0.00224119727 -0.186619118 -0.866076231 -0.463772923 -0.32869041 -0.500106573 -0.801159203 -0.499998748 -7.16206785e-07 -0.866026103 -0.435505867 0.500106871 -0.748483658 -0.254329324 0.866076291 -0.430381715 -0.00506989937 0.999982893 0.00292677246 0.245558232 0.866076767 0.435444862 0.430454642 0.500105739 0.751400709 0.500002146 1.64882053e-07 0.866024137 0.435508281 -0.500106037 0.748482823 0.254329652 -0.866076648 0.430380821 0.00506975874 -0.999982834 -0.00292786886 -0.245555803 -0.866076827 -0.435446084 -0.430452019 -0.500105977 -0.75140208 -0.608762324 2.31865641e-07 -0.793352664 -0.52947861 0.500106812 -0.685233951 -0.308329433 0.866076648 -0.393502504 -0.0046443562 0.999982893 0.00356363272 0.300292939 0.866076291 0.399669856 0.524846971 0.500105798 0.688788712 0.608761311 -7.72884903e-08 0.793353438 0.529478371 -0.500105619 0.685235023 0.308329493 -0.86607635 0.39350307 0.0046441853 -0.999982893 -0.00356341037 -0.300294161 -0.86607635 -0.399668843 -0.524847269 -0.500107169 -0.68878746 -0.707106531 -2.57628386e-07 -0.707107067 -0.614388466 0.500106871 -0.610262215 -0.357053757 0.866076648 -0.349891216 -0.00413980288 0.999982893 0.00413925014 0.349891603 0.866076708 0.35705325 0.610262692 0.500106156 0.614388585 0.707107246 2.83391074e-07 0.707106352 0.614388883 -0.500106454 0.610262096 0.357053429 -0.866076708 0.349891394 0.00413927296 -0.999982893 -0.00413985131 -0.349891037 -0.866076648 -0.357053936 -0.610261977 -0.500106692 -0.614388764 -0.7933532 -1.41180487e-06 -0.608761609 -0.688787699 0.500108898 -0.524845302 -0.399669915 0.86607641 -0.300292611 -0.00356347836 0.999982893 0.00464448612 0.393503606 0.866076231 0.308329135 0.685235143 0.500105977 0.529477894 0.7933532 -9.27461912e-08 0.608761609 0.688788295 -0.500106156 0.52484709 0.399670362 -0.866076112 0.30029273 0.00356392353 -0.999982893 -0.00464423327 -0.393503189 -0.866076648 -0.308328569 -0.685235202 -0.500107348 -0.529476523 -0.866026103 9.42920963e-07 -0.499998748 -0.751401246 0.500108182 -0.430450827 -0.435446024 0.866076589 -0.245556623 -0.00292734732 0.999982893 0.00506958738 0.430381358 0.866076171 0.254330337 0.748482347 0.500105977 0.435509086 0.866023719 -4.37968168e-07 0.500002921 0.751401067 -0.500105262 0.430454642 0.435445398 -0.86607635 0.245558575 0.00292690401 -0.999982893 -0.00506933313 -0.430382073 -0.866076291 -0.254328787 -0.74848181 -0.500109375 -0.435506135 -0.923879743 1.17478555e-06 -0.382682949 -0.801158071 0.500106633 -0.328693032 -0.463772207 0.86607635 -0.18662034 -0.00224066898 0.999982893 0.00540839741 0.4598957 0.866076529 0.195978075 0.798924744 0.500105441 0.334086478 0.923879504 1.12325972e-06 0.382683456 0.80115819 -0.500106633 0.328692824 0.463772416 -0.86607635 0.186619654 0.00223990018 -0.999982834 -0.00540885329 -0.45989579 -0.866076469 -0.19597812 -0.798924148 -0.500107467 -0.334084868 -0.965925395 4.58578256e-07 -0.258820683 -0.837207317 0.500105739 -0.221310019 -0.484163046 0.866076648 -0.124488369 -0.00151542516 0.999982893 0.00565450825 0.481542528 0.866076171 0.134271443 0.835697353 0.500106633 0.226943493 0.965925992 -7.21359683e-08 0.258818448 0.837207139 -0.500106931 0.221308097 0.484164745 -0.866075873 0.124487177 0.00151465379 -0.999982834 -0.00565495482 -0.481541991 -0.86607635 -0.134272352 -0.835696459 -0.500106633 -0.226946622 -0.991444826 -2.06102627e-07 -0.130526438 -0.858931303 0.50010699 -0.110136271 -0.496269226 0.866077185 -0.0602260567 -0.000764717348 0.999982893 0.00580379786 0.494948953 0.866075993 0.0702700466 0.858169794 0.500105739 0.11592593 0.991444707 -2.88543902e-07 0.130527422 0.858932316 -0.500105202 0.110136628 0.496270627 -0.866076231 0.0602280423 0.000763652846 -0.999982893 -0.00580367073 -0.494947314 -0.866077006 -0.0702694356 -0.858169436 -0.500106871 -0.115924038 -1 -5.15256504e-09 7.72884778e-09 -0.865958929 0.500106633 0.00291796192 -0.49988535 0.866076767 0.00506419968 -8.74297612e-08 0.999982834 0.00585437473 0.499886334 0.866076231 0.00506508304 0.865958929 0.500106633 0.00291687925 1 1.54577027e-08 0 0.865958929 -0.500106633 -0.00291687925 0.499886334 -0.866076231 -0.00506508164 -7.20009865e-08 -0.999982834 -0.00585437287 -0.49988535 -0.866076767 -0.0050641913 -0.865958929 -0.500106633 -0.00291794795 -0.991444826 2.42170529e-07 0.130526394 -0.858169496 0.500106752 0.115923963 -0.494947433 0.866076946 0.070269376 0.000763663033 0.999982893 0.00580366375 0.496270627 0.866076231 -0.0602280609 0.858932316 0.500105202 -0.110136598 0.991444707 2.88543902e-07 -0.130527422 0.858169794 -0.500105739 -0.11592593 0.494949162 -0.866075873 -0.070270054 -0.000764707103 -0.999982893 -0.00580379972 -0.496269226 -0.866077185 0.0602260381 -0.858931303 -0.50010699 0.110136203 -0.965926051 -5.20409117e-07 0.25881812 -0.835697174 0.500106454 0.226944372 -0.481542647 0.866076231 0.134270638 0.00151494937 0.999982893 0.00565450592 0.484164745 0.866075873 -0.124487244 0.837207198 0.500106812 -0.221308112 0.965925694 4.79189055e-07 -0.25881952 0.835696995 -0.500106931 -0.226944014 0.481542528 -0.866076171 -0.134271547 -0.00151541771 -0.999982893 -0.00565452734 -0.484163105 -0.866076827 0.124487013 -0.837208092 -0.500105441 0.221307769 -0.923880219 1.64882152e-07 0.382681727 -0.798925757 0.500106156 0.334082991 -0.459896296 0.866076589 0.195976317 0.00224049063 0.999982893 0.00540851522 0.463772714 0.86607635 -0.186618954 0.801157653 0.500107527 -0.328692675 0.923879623 -1.07688732e-06 -0.382683158 0.798924625 -0.500106156 -0.334085792 0.45989567 -0.866076648 -0.195977554 -0.00224027457 -0.999982834 -0.00540876761 -0.463772982 -0.86607641 0.186617926 -0.801159382 -0.500106454 0.328690052 -0.866024911 -5.10104201e-07 0.500000834 -0.748482764 0.500106633 0.435507566 -0.430380791 0.866076648 0.254329801 0.0029268763 0.999982893 0.00506983884 0.435444862 0.866076767 -0.245558232 0.751400828 0.500106215 -0.430453897 0.866024911 -4.3796814e-07 -0.500000834 0.748482883 -0.500105977 -0.435508221 0.430381 -0.866076648 -0.254329473 -0.00292732497 -0.999982893 -0.0050697173 -0.435445547 -0.866076708 0.245557159 -0.751401067 -0.500105977 0.430453777 -0.793352723 2.06102783e-07 0.608762205 -0.685233951 0.500106812 0.52947861 -0.393502504 0.866076648 0.308329433 0.00356363272 0.999982893 0.0046443562 0.399670035 0.866076291 -0.30029276 0.68878901 0.500105798 -0.524846554 0.793353558 4.63730956e-08 -0.608761132 0.685235202 -0.500105619 -0.529478133 0.393503278 -0.86607641 -0.308329165 -0.00356334983 -0.999982893 -0.00464417692 -0.399668843 -0.86607635 0.300294161 -0.68878746 -0.500107169 0.524847269 -0.707106769 1.3654294e-06 0.707106769 -0.610263228 0.500105262 0.614388764 -0.349891245 0.866076887 0.357053131 0.00413917145 0.999982893 0.00413999753 0.357054323 0.866076708 -0.34989053 0.6143893 0.500106692 -0.6102615 0.70710659 3.09153904e-07 -0.707106948 0.610262632 -0.500106454 -0.614388347 0.349891931 -0.866077006 -0.357052207 -0.00413962547 -0.999982893 -0.00413913187 -0.357054114 -0.866076469 0.349891216 -0.61438942 -0.50010699 0.610261083 -0.60876292 -3.76137052e-07 0.793352187 -0.52484858 0.500105917 0.688787401 -0.300293446 0.866076767 0.399668455 0.00464423839 0.999982893 0.0035637815 0.308328748 0.866076946 -0.393502355 0.529477537 0.500106573 -0.685234964 0.608761728 3.60679593e-08 -0.79335314 0.524847627 -0.50010705 -0.688787282 0.300292552 -0.866076648 -0.399669319 -0.00464474503 -0.999982834 -0.00356357126 -0.308329344 -0.866076946 0.393501908 -0.529478908 -0.500105381 0.685234785 -0.499999553 -6.44070838e-07 0.866025686 -0.430450886 0.500106692 0.751402259 -0.245555803 0.866076827 0.435446084 0.00506936572 0.999982893 0.00292788609 0.254329145 0.866076708 -0.43038103 0.435508966 0.500105977 -0.748482406 0.500002921 -4.37968168e-07 -0.866023719 0.430454135 -0.500105619 -0.751401067 0.245557874 -0.866076589 -0.435445398 -0.00506993942 -0.999982893 -0.00292635337 -0.254328609 -0.866076708 0.430381358 -0.435506165 -0.500106156 0.748483956 -0.382681936 -1.70034653e-07 0.92388016 -0.328690618 0.500106812 0.801158965 -0.18661879 0.86607635 0.463772744 0.00540816691 0.999982893 0.00224144175 0.195977896 0.866076648 -0.459895521 0.334086478 0.500105441 -0.798924744 0.382684529 7.00749183e-07 -0.923879087 0.32869342 -0.500106335 -0.801158071 0.186619267 -0.866076589 -0.463772118 -0.00540877506 -0.999982893 -0.00223935442 -0.195976019 -0.86607641 0.459896773 -0.334082991 -0.500106633 0.798925459 -0.258820891 7.00748842e-07 0.965925336 -0.221310049 0.500106156 0.837207079 -0.124488756 0.866076887 0.484162599 0.00565419812 0.999982893 0.00151573902 0.134271473 0.866076291 -0.481542319 0.226944223 0.500106156 -0.835697412 0.258818775 -9.27462196e-08 -0.965925872 0.221307948 -0.500106275 -0.837207556 0.124487042 -0.866075933 -0.484164655 -0.00565496553 -0.999982893 -0.00151418091 -0.13427268 -0.866076708 0.481541276 -0.226947501 -0.50010711 0.835695922 -0.130526543 -2.11255141e-07 0.991444826 -0.110137075 0.50010699 0.858931243 -0.0602268204 0.866077006 0.496269405 0.00580379786 0.999982893 0.00076481502 0.0702699944 0.866075993 -0.494948953 0.115925625 0.50010556 -0.858169973 0.130526796 -4.12205416e-08 -0.991444767 0.110136636 -0.500105202 -0.858932316 0.0602280982 -0.866076291 -0.496270508 -0.00580392499 -0.999982893 -0.000763436838 -0.0702701733 -0.866077304 0.494946718 -0.115924239 -0.500106633 0.858169496 5.79663499e-08 -8.24410407e-08 1 0.00291812792 0.500106633 0.865958929 0.00506319851 0.86607635 0.499886125 0.00585404318 0.999982893 -2.31431812e-07 0.0050649927 0.866076231 -0.499886334 0.00291662989 0.500106633 -0.865958929 -8.37292191e-08 -8.24410904e-08 -1 -0.00291706622 -0.500106454 -0.865959048 -0.00506528234 -0.866076231 -0.499886334 -0.00585437473 -0.999982834 9.25727051e-08 -0.00506522832 -0.866076946 0.499885052 -0.00291862502 -0.500105739 0.865959406 0.13052696 2.26712814e-07 0.991444767 0.115923822 0.500105262 0.85817039 0.0702696592 0.86607641 0.494948298 0.00580386305 0.999982893 -0.000764249184 -0.0602282025 0.866076291 -0.496270508 -0.110136278 0.500104725 -0.858932614 -0.130527183 2.78238531e-07 -0.991444707 -0.115925662 -0.500105381 -0.858170033 -0.0702699348 -0.866075873 -0.494949162 -0.00580416061 -0.999982893 0.000764228578 0.0602261461 -0.866076529 0.496270329 0.110137537 -0.500105083 0.858932257 0.258819699 -8.96546453e-07 0.965925634 0.226946637 0.500105619 0.835697055 0.134273276 0.86607635 0.481541693 0.00565493619 0.999982834 -0.00151467416 -0.1244881 0.866075873 -0.484164536 -0.221308634 0.500105381 -0.837207913 -0.25881809 2.93696388e-07 -0.965926111 -0.226942986 -0.500106275 -0.835697711 -0.134272709 -0.866075635 -0.481543183 -0.00565444911 -0.999982893 0.00151539699 0.124490015 -0.866075993 0.484163821 0.221310154 -0.500105202 0.837207615 0.382682383 -1.13356566e-06 0.923879981 0.334084541 0.500108182 0.79892385 0.19597742 0.866076112 0.459896773 0.005408186 0.999982893 -0.00223985501 -0.186619326 0.866075397 -0.463774323 -0.32869181 0.500105262 -0.801159441 -0.382683486 -1.09234441e-06 -0.923879504 -0.33408764 -0.500103652 -0.7989254 -0.195977941 -0.866075873 -0.459896922 -0.00540796435 -0.999982893 0.00224042661 0.186618641 -0.866076469 0.463772625 0.328691095 -0.500106633 0.801158845 0.499998868 8.86242333e-07 0.866026044 0.435504735 0.500106454 0.748484552 0.254327893 0.866076052 0.430383027 0.00506966375 0.999982834 -0.00292771123 -0.245557323 0.866076171 -0.43544656 -0.430454642 0.500105739 -0.751400709 -0.500002146 1.64882053e-07 -0.866024137 -0.435507536 -0.500105202 -0.748483777 -0.254328668 -0.866076469 -0.430381805 -0.00507034967 -0.999982834 0.0029267983 0.245556623 -0.866076112 0.435447067 0.430450678 -0.500107348 0.751401961 0.608761907 5.25561973e-07 0.793352962 0.529478073 0.500106275 0.685234785 0.308329433 0.866076648 0.393502504 0.00464366935 0.999982893 -0.00356413424 -0.300293088 0.866076171 -0.399670035 -0.524846554 0.500105798 -0.68878901 -0.608761132 4.63730956e-08 -0.793353558 -0.529478133 -0.500105619 -0.685235202 -0.308329135 -0.86607635 -0.393503428 -0.0046445597 -0.999982893 0.00356293726 0.300291896 -0.866076767 0.399669707 0.524846554 -0.500106633 0.688788414 0.70710665 -1.17478578e-06 0.707106888 0.614388943 0.500106514 0.610261977 0.357054472 0.866075754 0.349892616 0.00413885806 0.999982834 -0.00414052047 -0.349891454 0.86607641 -0.357054025 -0.610262096 0.500106275 -0.614389062 -0.707106948 3.09153904e-07 -0.70710659 -0.614388227 -0.500106514 -0.610262692 -0.357053667 -0.86607641 -0.349891812 -0.0041405214 -0.999982834 0.00413887994 0.349892259 -0.866076171 0.357053936 0.610264003 -0.500104845 0.614388347 0.793352485 -5.87393572e-07 0.608762562 0.688787699 0.500107467 0.524846673 0.399670035 0.866076171 0.300293088 0.00356288883 0.999982893 -0.00464471895 -0.393503398 0.866076291 -0.308329284 -0.685235023 0.500105739 -0.529478252 -0.79335314 4.63731027e-08 -0.608761728 -0.688788116 -0.500106096 -0.524847448 -0.399670392 -0.866075993 -0.300293088 -0.00356429536 -0.999982893 0.00464368658 0.393503815 -0.866075873 0.30832985 0.685233951 -0.500107169 0.529478252 0.866025746 4.27663821e-07 0.499999434 0.751401365 0.50010699 0.430452019 0.435446769 0.866076231 0.245556653 0.00292681227 0.999982834 -0.00507019879 -0.430381924 0.866076231 -0.254329145 -0.74848336 0.500105083 -0.4355084 -0.866023719 -4.37968168e-07 -0.500002921 -0.751401067 -0.500105262 -0.430454642 -0.43544668 -0.866075933 -0.245557755 -0.00292759854 -0.999982893 0.00506953709 0.430382967 -0.866075814 0.254328817 0.748483002 -0.500107884 0.435505837 0.923879862 1.56638134e-06 0.382682592 0.801158547 0.500106514 0.328691989 0.463772148 0.866076648 0.186618939 0.00224038516 0.999982893 -0.00540812546 -0.459896892 0.866075814 -0.195978433 -0.798925459 0.500103712 -0.334087491 -0.923879504 1.12325972e-06 -0.382683456 -0.801159263 -0.500105262 -0.328692317 -0.463774085 -0.866075456 -0.186619639 -0.00224001263 -0.999982893 0.00540821766 0.459896386 -0.866076291 0.195977584 0.798923492 -0.500108361 0.334085047 0.965925634 8.2956285e-07 0.258819848 0.837207556 0.500105262 0.221310362 0.484163433 0.866076231 0.124489799 0.00151538395 0.999982893 -0.00565442815 -0.481543064 0.866075695 -0.134272605 -0.835697651 0.500106215 -0.22694315 -0.965926111 -3.40069477e-07 -0.25881809 -0.837207913 -0.500105441 -0.22130847 -0.484164685 -0.866075814 -0.124488093 -0.00151465379 -0.999982834 0.00565493619 0.481541246 -0.866076589 0.13427335 0.835697114 -0.500105441 0.226946831 0.991444767 -4.53425628e-07 0.130526811 0.858932137 0.500105381 0.110137209 0.49627021 0.866076589 0.0602261499 0.000764249184 0.999982834 -0.00580416434 -0.494949162 0.866075873 -0.0702699348 -0.858170033 0.500105381 -0.115925662 -0.991444707 -2.73086044e-07 -0.130527228 -0.858932555 -0.500104845 -0.110136308 -0.496270508 -0.866076291 -0.0602282025 -0.000764244003 -0.999982893 0.00580386957 0.494948179 -0.866076469 0.0702695251 0.858170509 -0.500105083 0.115923539 </float_array>
          <technique_common>
            <accessor count="576" offset="0" source="#meshesQ0S-normals-array" stride="3">
              <param name="X" type="float" />
              <param name="Y" type="float" />
              <param name="Z" type="float" />
            </accessor>
          </technique_common>
        </source>
        <source id="meshesQ0S-tex0" name="meshesQ0S-tex0">
          <float_array id="meshesQ0S-tex0-array" count="1152"> 0 1 0 1 0 1 0 1 0 1 0 1 0 1 0 1 0 1 0 1 0 1 0 1 0 1 0 1 0 1 0 1 0 1 0 1 0 1 0 1 0 1 0 1 0 1 0 1 0 1 0 1 0 1 0 1 0 1 0 1 0 1 0 1 0 1 0 1 0 1 0 1 0 1 0 1 0 1 0 1 0 1 0 1 0 1 0 1 0 1 0 1 0 1 0 1 0 1 0 1 0 1 0 1 0 1 0 1 0 1 0 1 0 1 0 1 0 1 0 1 0 1 0 1 0 1 0 1 0 1 0 1 0 1 0 1 0 1 0 1 0 1 0 1 0 1 0 1 0 1 0 1 0 1 0 1 0 1 0 1 0 1 0 1 0 1 0 1 0 1 0 1 0 1 0 1 0 1 0 1 0 1 0 1 0 1 0 1 0 1 0 1 0 1 0 1 0 1 0 1 0 1 0 1 0 1 0 1 0 1 0 1 0 1 0 1 0 1 0 1 0 1 0 1 0 1 0 1 0 1 0 1 0 1 0 1 0 1 0 1 0 1 0 1 0 1 0 1 0 1 0 1 0 1 0 1 0 1 0 1 0 1 0 1 0 1 0 1 0 1 0 1 0 1 0 1 0 1 0 1 0 1 0 1 0 1 0 1 0 1 0 1 0 1 0 1 0 1 0 1 0 1 0 1 0 1 0 1 0 1 0 1 0 1 0 1 0 1 0 1 0 1 0 1 0 1 0 1 0 1 0 1 0 1 0 1 0 1 0 1 0 1 0 1 0 1 0 1 0 1 0 1 0 1 0 1 0 1 0 1 0 1 0 1 0 1 0 1 0 1 0 1 0 1 0 1 0 1 0 1 0 1 0 1 0 1 0 1 0 1 0 1 0 1 0 1 0 1 0 1 0 1 0 1 0 1 0 1 0 1 0 1 0 1 0 1 0 1 0 1 0 1 0 1 0 1 0 1 0 1 0 1 0 1 0 1 0 1 0 1 0 1 0 1 0 1 0 1 0 1 0 1 0 1 0 1 0 1 0 1 0 1 0 1 0 1 0 1 0 1 0 1 0 1 0 1 0 1 0 1 0 1 0 1 0 1 0 1 0 1 0 1 0 1 0 1 0 1 0 1 0 1 0 1 0 1 0 1 0 1 0 1 0 1 0 1 0 1 0 1 0 1 0 1 0 1 0 1 0 1 0 1 0 1 0 1 0 1 0 1 0 1 0 1 0 1 0 1 0 1 0 1 0 1 0 1 0 1 0 1 0 1 0 1 0 1 0 1 0 1 0 1 0 1 0 1 0 1 0 1 0 1 0 1 0 1 0 1 0 1 0 1 0 1 0 1 0 1 0 1 0 1 0 1 0 1 0 1 0 1 0 1 0 1 0 1 0 1 0 1 0 1 0 1 0 1 0 1 0 1 0 1 0 1 0 1 0 1 0 1 0 1 0 1 0 1 0 1 0 1 0 1 0 1 0 1 0 1 0 1 0 1 0 1 0 1 0 1 0 1 0 1 0 1 0 1 0 1 0 1 0 1 0 1 0 1 0 1 0 1 0 1 0 1 0 1 0 1 0 1 0 1 0 1 0 1 0 1 0 1 0 1 0 1 0 1 0 1 0 1 0 1 0 1 0 1 0 1 0 1 0 1 0 1 0 1 0 1 0 1 0 1 0 1 0 1 0 1 0 1 0 1 0 1 0 1 0 1 0 1 0 1 0 1 0 1 0 1 0 1 0 1 0 1 0 1 0 1 0 1 0 1 0 1 0 1 0 1 0 1 0 1 0 1 0 1 0 1 0 1 0 1 0 1 0 1 0 1 0 1 0 1 0 1 0 1 0 1 0 1 0 1 0 1 0 1 0 1 0 1 0 1 0 1 0 1 0 1 0 1 0 1 0 1 0 1 0 1 0 1 0 1 0 1 0 1 0 1 0 1 0 1 0 1 0 1 0 1 0 1 0 1 0 1 0 1 0 1 0 1 0 1 0 1 0 1 0 1 0 1 0 1 0 1 0 1 0 1 0 1 0 1 0 1 0 1 0 1 0 1 0 1 0 1 0 1 0 1 0 1 0 1 0 1 0 1 0 1 0 1 0 1 0 1 0 1 0 1 0 1 0 1 0 1 0 1 0 1 0 1 0 1 0 1 0 1 0 1 0 1 0 1 0 1 0 1 0 1 0 1 0 1 0 1 0 1 0 1 0 1 0 1 0 1 0 1 0 1 0 1 0 1 0 1 0 1 0 1 0 1 0 1 0 1 0 1 0 1 0 1 0 1 0 1 0 1 0 1 0 1 0 1 0 1 0 1 0 1 0 1 0 1 0 1 0 1 0 1 0 1 0 1 0 1 0 1 0 1 0 1 0 1 0 1 0 1 0 1 0 1 0 1 0 1 0 1 0 1 0 1 0 1 0 1 0 1 0 1 0 1 0 1 0 1 0 1 0 1 0 1 0 1 0 1 0 1 0 1 0 1 0 1 0 1 0 1 0 1 0 1 0 1 0 1 0 1 0 1 0 1 0 1 0 1 0 1 0 1 0 1 0 1 0 1 0 1 0 1 0 1 0 1 0 1 0 1 0 1 0 1 0 1 </float_array>
          <technique_common>
            <accessor count="576" offset="0" source="#meshesQ0S-tex0-array" stride="2">
              <param name="S" type="float" />
              <param name="T" type="float" />
            </accessor>
          </technique_common>
        </source>
        <vertices id="meshesQ0S-vertices">
          <input semantic="POSITION" source="#meshesQ0S-positions" />
        </vertices>
        <polylist count="1152" material="defaultMaterial">
          <input offset="0" semantic="VERTEX" source="#meshesQ0S-vertices" />
          <input offset="0" semantic="NORMAL" source="#meshesQ0S-normals" />
          <input offset="0" semantic="TEXCOORD" source="#meshesQ0S-tex0" set="0" />
          <vcount>3 3 3 3 3 3 3 3 3 3 3 3 3 3 3 3 3 3 3 3 3 3 3 3 3 3 3 3 3 3 3 3 3 3 3 3 3 3 3 3 3 3 3 3 3 3 3 3 3 3 3 3 3 3 3 3 3 3 3 3 3 3 3 3 3 3 3 3 3 3 3 3 3 3 3 3 3 3 3 3 3 3 3 3 3 3 3 3 3 3 3 3 3 3 3 3 3 3 3 3 3 3 3 3 3 3 3 3 3 3 3 3 3 3 3 3 3 3 3 3 3 3 3 3 3 3 3 3 3 3 3 3 3 3 3 3 3 3 3 3 3 3 3 3 3 3 3 3 3 3 3 3 3 3 3 3 3 3 3 3 3 3 3 3 3 3 3 3 3 3 3 3 3 3 3 3 3 3 3 3 3 3 3 3 3 3 3 3 3 3 3 3 3 3 3 3 3 3 3 3 3 3 3 3 3 3 3 3 3 3 3 3 3 3 3 3 3 3 3 3 3 3 3 3 3 3 3 3 3 3 3 3 3 3 3 3 3 3 3 3 3 3 3 3 3 3 3 3 3 3 3 3 3 3 3 3 3 3 3 3 3 3 3 3 3 3 3 3 3 3 3 3 3 3 3 3 3 3 3 3 3 3 3 3 3 3 3 3 3 3 3 3 3 3 3 3 3 3 3 3 3 3 3 3 3 3 3 3 3 3 3 3 3 3 3 3 3 3 3 3 3 3 3 3 3 3 3 3 3 3 3 3 3 3 3 3 3 3 3 3 3 3 3 3 3 3 3 3 3 3 3 3 3 3 3 3 3 3 3 3 3 3 3 3 3 3 3 3 3 3 3 3 3 3 3 3 3 3 3 3 3 3 3 3 3 3 3 3 3 3 3 3 3 3 3 3 3 3 3 3 3 3 3 3 3 3 3 3 3 3 3 3 3 3 3 3 3 3 3 3 3 3 3 3 3 3 3 3 3 3 3 3 3 3 3 3 3 3 3 3 3 3 3 3 3 3 3 3 3 3 3 3 3 3 3 3 3 3 3 3 3 3 3 3 3 3 3 3 3 3 3 3 3 3 3 3 3 3 3 3 3 3 3 3 3 3 3 3 3 3 3 3 3 3 3 3 3 3 3 3 3 3 3 3 3 3 3 3 3 3 3 3 3 3 3 3 3 3 3 3 3 3 3 3 3 3 3 3 3 3 3 3 3 3 3 3 3 3 3 3 3 3 3 3 3 3 3 3 3 3 3 3 3 3 3 3 3 3 3 3 3 3 3 3 3 3 3 3 3 3 3 3 3 3 3 3 3 3 3 3 3 3 3 3 3 3 3 3 3 3 3 3 3 3 3 3 3 3 3 3 3 3 3 3 3 3 3 3 3 3 3 3 3 3 3 3 3 3 3 3 3 3 3 3 3 3 3 3 3 3 3 3 3 3 3 3 3 3 3 3 3 3 3 3 3 3 3 3 3 3 3 3 3 3 3 3 3 3 3 3 3 3 3 3 3 3 3 3 3 3 3 3 3 3 3 3 3 3 3 3 3 3 3 3 3 3 3 3 3 3 3 3 3 3 3 3 3 3 3 3 3 3 3 3 3 3 3 3 3 3 3 3 3 3 3 3 3 3 3 3 3 3 3 3 3 3 3 3 3 3 3 3 3 3 3 3 3 3 3 3 3 3 3 3 3 3 3 3 3 3 3 3 3 3 3 3 3 3 3 3 3 3 3 3 3 3 3 3 3 3 3 3 3 3 3 3 3 3 3 3 3 3 3 3 3 3 3 3 3 3 3 3 3 3 3 3 3 3 3 3 3 3 3 3 3 3 3 3 3 3 3 3 3 3 3 3 3 3 3 3 3 3 3 3 3 3 3 3 3 3 3 3 3 3 3 3 3 3 3 3 3 3 3 3 3 3 3 3 3 3 3 3 3 3 3 3 3 3 3 3 3 3 3 3 3 3 3 3 3 3 3 3 3 3 3 3 3 3 3 3 3 3 3 3 3 3 3 3 3 3 3 3 3 3 3 3 3 3 3 3 3 3 3 3 3 3 3 3 3 3 3 3 3 3 3 3 3 3 3 3 3 3 3 3 3 3 3 3 3 3 3 3 3 3 3 3 3 3 3 3 3 3 3 3 3 3 3 3 3 3 3 3 3 3 3 3 3 3 3 3 3 3 3 3 3 3 3 3 3 3 3 3 3 3 3 3 3 3 3 3 3 3 3 3 3 3 3 3 3 3 3 3 3 3 3 3 3 3 3 3 3 3 3 3 3 3 3 3 3 3 3 3 3 3 3 3 3 3 3 3 3 3 3 3 3 3 3 3 3 3 3 3 3 3 3 3 3 3 3 3 3 3 3 3 3 3 3 3 3 3 3 3 3 3 3 3 3 3 3 3 3 3 3 3 3 3 3 3 3 3 3 3 3 3 3 3 3 3 3 3 3 3 3 3 3 3 3 3 3 3 3 3 3 3 3 3 3 3 3 3 3 3 3 3 3 3 3 3 3 3 3 3 3 3 3 3 3 3 3 3 3 3 3 3 3 3 3 3 3 3 3 3 3 3 3 3 3 3 3 3 3 3 3 3 3 3 3 3 3 3 3 3 </vcount>
          <p>0 1 2 2 3 0 1 4 5 5 2 1 4 6 7 7 5 4 6 8 9 9 7 6 8 10 11 11 9 8 10 12 13 13 11 10 12 14 15 15 13 12 14 16 17 17 15 14 16 18 19 19 17 16 18 20 21 21 19 18 20 22 23 23 21 20 22 0 3 3 23 22 24 25 1 1 0 24 25 26 4 4 1 25 26 27 6 6 4 26 27 28 8 8 6 27 28 29 10 10 8 28 29 30 12 12 10 29 30 31 14 14 12 30 31 32 16 16 14 31 32 33 18 18 16 32 33 34 20 20 18 33 34 35 22 22 20 34 35 24 0 0 22 35 36 37 25 25 24 36 37 38 26 26 25 37 38 39 27 27 26 38 39 40 28 28 27 39 40 41 29 29 28 40 41 42 30 30 29 41 42 43 31 31 30 42 43 44 32 32 31 43 44 45 33 33 32 44 45 46 34 34 33 45 46 47 35 35 34 46 47 36 24 24 35 47 48 49 37 37 36 48 49 50 38 38 37 49 50 51 39 39 38 50 51 52 40 40 39 51 52 53 41 41 40 52 53 54 42 42 41 53 54 55 43 43 42 54 55 56 44 44 43 55 56 57 45 45 44 56 57 58 46 46 45 57 58 59 47 47 46 58 59 48 36 36 47 59 60 61 49 49 48 60 61 62 50 50 49 61 62 63 51 51 50 62 63 64 52 52 51 63 64 65 53 53 52 64 65 66 54 54 53 65 66 67 55 55 54 66 67 68 56 56 55 67 68 69 57 57 56 68 69 70 58 58 57 69 70 71 59 59 58 70 71 60 48 48 59 71 72 73 61 61 60 72 73 74 62 62 61 73 74 75 63 63 62 74 75 76 64 64 63 75 76 77 65 65 64 76 77 78 66 66 65 77 78 79 67 67 66 78 79 80 68 68 67 79 80 81 69 69 68 80 81 82 70 70 69 81 82 83 71 71 70 82 83 72 60 60 71 83 84 85 73 73 72 84 85 86 74 74 73 85 86 87 75 75 74 86 87 88 76 76 75 87 88 89 77 77 76 88 89 90 78 78 77 89 90 91 79 79 78 90 91 92 80 80 79 91 92 93 81 81 80 92 93 94 82 82 81 93 94 95 83 83 82 94 95 84 72 72 83 95 96 97 85 85 84 96 97 98 86 86 85 97 98 99 87 87 86 98 99 100 88 88 87 99 100 101 89 89 88 100 101 102 90 90 89 101 102 103 91 91 90 102 103 104 92 92 91 103 104 105 93 93 92 104 105 106 94 94 93 105 106 107 95 95 94 106 107 96 84 84 95 107 108 109 97 97 96 108 109 110 98 98 97 109 110 111 99 99 98 110 111 112 100 100 99 111 112 113 101 101 100 112 113 114 102 102 101 113 114 115 103 103 102 114 115 116 104 104 103 115 116 117 105 105 104 116 117 118 106 106 105 117 118 119 107 107 106 118 119 108 96 96 107 119 120 121 109 109 108 120 121 122 110 110 109 121 122 123 111 111 110 122 123 124 112 112 111 123 124 125 113 113 112 124 125 126 114 114 113 125 126 127 115 115 114 126 127 128 116 116 115 127 128 129 117 117 116 128 129 130 118 118 117 129 130 131 119 119 118 130 131 120 108 108 119 131 132 133 121 121 120 132 133 134 122 122 121 133 134 135 123 123 122 134 135 136 124 124 123 135 136 137 125 125 124 136 137 138 126 126 125 137 138 139 127 127 126 138 139 140 128 128 127 139 140 141 129 129 128 140 141 142 130 130 129 141 142 143 131 131 130 142 143 132 120 120 131 143 144 145 133 133 132 144 145 146 134 134 133 145 146 147 135 135 134 146 147 148 136 136 135 147 148 149 137 137 136 148 149 150 138 138 137 149 150 151 139 139 138 150 151 152 140 140 139 151 152 153 141 141 140 152 153 154 142 142 141 153 154 155 143 143 142 154 155 144 132 132 143 155 156 157 145 145 144 156 157 158 146 146 145 157 158 159 147 147 146 158 159 160 148 148 147 159 160 161 149 149 148 160 161 162 150 150 149 161 162 163 151 151 150 162 163 164 152 152 151 163 164 165 153 153 152 164 165 166 154 154 153 165 166 167 155 155 154 166 167 156 144 144 155 167 168 169 157 157 156 168 169 170 158 158 157 169 170 171 159 159 158 170 171 172 160 160 159 171 172 173 161 161 160 172 173 174 162 162 161 173 174 175 163 163 162 174 175 176 164 164 163 175 176 177 165 165 164 176 177 178 166 166 165 177 178 179 167 167 166 178 179 168 156 156 167 179 180 181 169 169 168 180 181 182 170 170 169 181 182 183 171 171 170 182 183 184 172 172 171 183 184 185 173 173 172 184 185 186 174 174 173 185 186 187 175 175 174 186 187 188 176 176 175 187 188 189 177 177 176 188 189 190 178 178 177 189 190 191 179 179 178 190 191 180 168 168 179 191 192 193 181 181 180 192 193 194 182 182 181 193 194 195 183 183 182 194 195 196 184 184 183 195 196 197 185 185 184 196 197 198 186 186 185 197 198 199 187 187 186 198 199 200 188 188 187 199 200 201 189 189 188 200 201 202 190 190 189 201 202 203 191 191 190 202 203 192 180 180 191 203 204 205 193 193 192 204 205 206 194 194 193 205 206 207 195 195 194 206 207 208 196 196 195 207 208 209 197 197 196 208 209 210 198 198 197 209 210 211 199 199 198 210 211 212 200 200 199 211 212 213 201 201 200 212 213 214 202 202 201 213 214 215 203 203 202 214 215 204 192 192 203 215 216 217 205 205 204 216 217 218 206 206 205 217 218 219 207 207 206 218 219 220 208 208 207 219 220 221 209 209 208 220 221 222 210 210 209 221 222 223 211 211 210 222 223 224 212 212 211 223 224 225 213 213 212 224 225 226 214 214 213 225 226 227 215 215 214 226 227 216 204 204 215 227 228 229 217 217 216 228 229 230 218 218 217 229 230 231 219 219 218 230 231 232 220 220 219 231 232 233 221 221 220 232 233 234 222 222 221 233 234 235 223 223 222 234 235 236 224 224 223 235 236 237 225 225 224 236 237 238 226 226 225 237 238 239 227 227 226 238 239 228 216 216 227 239 240 241 229 229 228 240 241 242 230 230 229 241 242 243 231 231 230 242 243 244 232 232 231 243 244 245 233 233 232 244 245 246 234 234 233 245 246 247 235 235 234 246 247 248 236 236 235 247 248 249 237 237 236 248 249 250 238 238 237 249 250 251 239 239 238 250 251 240 228 228 239 251 252 253 241 241 240 252 253 254 242 242 241 253 254 255 243 243 242 254 255 256 244 244 243 255 256 257 245 245 244 256 257 258 246 246 245 257 258 259 247 247 246 258 259 260 248 248 247 259 260 261 249 249 248 260 261 262 250 250 249 261 262 263 251 251 250 262 263 252 240 240 251 263 264 265 253 253 252 264 265 266 254 254 253 265 266 267 255 255 254 266 267 268 256 256 255 267 268 269 257 257 256 268 269 270 258 258 257 269 270 271 259 259 258 270 271 272 260 260 259 271 272 273 261 261 260 272 273 274 262 262 261 273 274 275 263 263 262 274 275 264 252 252 263 275 276 277 265 265 264 276 277 278 266 266 265 277 278 279 267 267 266 278 279 280 268 268 267 279 280 281 269 269 268 280 281 282 270 270 269 281 282 283 271 271 270 282 283 284 272 272 271 283 284 285 273 273 272 284 285 286 274 274 273 285 286 287 275 275 274 286 287 276 264 264 275 287 288 289 277 277 276 288 289 290 278 278 277 289 290 291 279 279 278 290 291 292 280 280 279 291 292 293 281 281 280 292 293 294 282 282 281 293 294 295 283 283 282 294 295 296 284 284 283 295 296 297 285 285 284 296 297 298 286 286 285 297 298 299 287 287 286 298 299 288 276 276 287 299 300 301 289 289 288 300 301 302 290 290 289 301 302 303 291 291 290 302 303 304 292 292 291 303 304 305 293 293 292 304 305 306 294 294 293 305 306 307 295 295 294 306 307 308 296 296 295 307 308 309 297 297 296 308 309 310 298 298 297 309 310 311 299 299 298 310 311 300 288 288 299 311 312 313 301 301 300 312 313 314 302 302 301 313 314 315 303 303 302 314 315 316 304 304 303 315 316 317 305 305 304 316 317 318 306 306 305 317 318 319 307 307 306 318 319 320 308 308 307 319 320 321 309 309 308 320 321 322 310 310 309 321 322 323 311 311 310 322 323 312 300 300 311 323 324 325 313 313 312 324 325 326 314 314 313 325 326 327 315 315 314 326 327 328 316 316 315 327 328 329 317 317 316 328 329 330 318 318 317 329 330 331 319 319 318 330 331 332 320 320 319 331 332 333 321 321 320 332 333 334 322 322 321 333 334 335 323 323 322 334 335 324 312 312 323 335 336 337 325 325 324 336 337 338 326 326 325 337 338 339 327 327 326 338 339 340 328 328 327 339 340 341 329 329 328 340 341 342 330 330 329 341 342 343 331 331 330 342 343 344 332 332 331 343 344 345 333 333 332 344 345 346 334 334 333 345 346 347 335 335 334 346 347 336 324 324 335 347 348 349 337 337 336 348 349 350 338 338 337 349 350 351 339 339 338 350 351 352 340 340 339 351 352 353 341 341 340 352 353 354 342 342 341 353 354 355 343 343 342 354 355 356 344 344 343 355 356 357 345 345 344 356 357 358 346 346 345 357 358 359 347 347 346 358 359 348 336 336 347 359 360 361 349 349 348 360 361 362 350 350 349 361 362 363 351 351 350 362 363 364 352 352 351 363 364 365 353 353 352 364 365 366 354 354 353 365 366 367 355 355 354 366 367 368 356 356 355 367 368 369 357 357 356 368 369 370 358 358 357 369 370 371 359 359 358 370 371 360 348 348 359 371 372 373 361 361 360 372 373 374 362 362 361 373 374 375 363 363 362 374 375 376 364 364 363 375 376 377 365 365 364 376 377 378 366 366 365 377 378 379 367 367 366 378 379 380 368 368 367 379 380 381 369 369 368 380 381 382 370 370 369 381 382 383 371 371 370 382 383 372 360 360 371 383 384 385 373 373 372 384 385 386 374 374 373 385 386 387 375 375 374 386 387 388 376 376 375 387 388 389 377 377 376 388 389 390 378 378 377 389 390 391 379 379 378 390 391 392 380 380 379 391 392 393 381 381 380 392 393 394 382 382 381 393 394 395 383 383 382 394 395 384 372 372 383 395 396 397 385 385 384 396 397 398 386 386 385 397 398 399 387 387 386 398 399 400 388 388 387 399 400 401 389 389 388 400 401 402 390 390 389 401 402 403 391 391 390 402 403 404 392 392 391 403 404 405 393 393 392 404 405 406 394 394 393 405 406 407 395 395 394 406 407 396 384 384 395 407 408 409 397 397 396 408 409 410 398 398 397 409 410 411 399 399 398 410 411 412 400 400 399 411 412 413 401 401 400 412 413 414 402 402 401 413 414 415 403 403 402 414 415 416 404 404 403 415 416 417 405 405 404 416 417 418 406 406 405 417 418 419 407 407 406 418 419 408 396 396 407 419 420 421 409 409 408 420 421 422 410 410 409 421 422 423 411 411 410 422 423 424 412 412 411 423 424 425 413 413 412 424 425 426 414 414 413 425 426 427 415 415 414 426 427 428 416 416 415 427 428 429 417 417 416 428 429 430 418 418 417 429 430 431 419 419 418 430 431 420 408 408 419 431 432 433 421 421 420 432 433 434 422 422 421 433 434 435 423 423 422 434 435 436 424 424 423 435 436 437 425 425 424 436 437 438 426 426 425 437 438 439 427 427 426 438 439 440 428 428 427 439 440 441 429 429 428 440 441 442 430 430 429 441 442 443 431 431 430 442 443 432 420 420 431 443 444 445 433 433 432 444 445 446 434 434 433 445 446 447 435 435 434 446 447 448 436 436 435 447 448 449 437 437 436 448 449 450 438 438 437 449 450 451 439 439 438 450 451 452 440 440 439 451 452 453 441 441 440 452 453 454 442 442 441 453 454 455 443 443 442 454 455 444 432 432 443 455 456 457 445 445 444 456 457 458 446 446 445 457 458 459 447 447 446 458 459 460 448 448 447 459 460 461 449 449 448 460 461 462 450 450 449 461 462 463 451 451 450 462 463 464 452 452 451 463 464 465 453 453 452 464 465 466 454 454 453 465 466 467 455 455 454 466 467 456 444 444 455 467 468 469 457 457 456 468 469 470 458 458 457 469 470 471 459 459 458 470 471 472 460 460 459 471 472 473 461 461 460 472 473 474 462 462 461 473 474 475 463 463 462 474 475 476 464 464 463 475 476 477 465 465 464 476 477 478 466 466 465 477 478 479 467 467 466 478 479 468 456 456 467 479 480 481 469 469 468 480 481 482 470 470 469 481 482 483 471 471 470 482 483 484 472 472 471 483 484 485 473 473 472 484 485 486 474 474 473 485 486 487 475 475 474 486 487 488 476 476 475 487 488 489 477 477 476 488 489 490 478 478 477 489 490 491 479 479 478 490 491 480 468 468 479 491 492 493 481 481 480 492 493 494 482 482 481 493 494 495 483 483 482 494 495 496 484 484 483 495 496 497 485 485 484 496 497 498 486 486 485 497 498 499 487 487 486 498 499 500 488 488 487 499 500 501 489 489 488 500 501 502 490 490 489 501 502 503 491 491 490 502 503 492 480 480 491 503 504 505 493 493 492 504 505 506 494 494 493 505 506 507 495 495 494 506 507 508 496 496 495 507 508 509 497 497 496 508 509 510 498 498 497 509 510 511 499 499 498 510 511 512 500 500 499 511 512 513 501 501 500 512 513 514 502 502 501 513 514 515 503 503 502 514 515 504 492 492 503 515 516 517 505 505 504 516 517 518 506 506 505 517 518 519 507 507 506 518 519 520 508 508 507 519 520 521 509 509 508 520 521 522 510 510 509 521 522 523 511 511 510 522 523 524 512 512 511 523 524 525 513 513 512 524 525 526 514 514 513 525 526 527 515 515 514 526 527 516 504 504 515 527 528 529 517 517 516 528 529 530 518 518 517 529 530 531 519 519 518 530 531 532 520 520 519 531 532 533 521 521 520 532 533 534 522 522 521 533 534 535 523 523 522 534 535 536 524 524 523 535 536 537 525 525 524 536 537 538 526 526 525 537 538 539 527 527 526 538 539 528 516 516 527 539 540 541 529 529 528 540 541 542 530 530 529 541 542 543 531 531 530 542 543 544 532 532 531 543 544 545 533 533 532 544 545 546 534 534 533 545 546 547 535 535 534 546 547 548 536 536 535 547 548 549 537 537 536 548 549 550 538 538 537 549 550 551 539 539 538 550 551 540 528 528 539 551 552 553 541 541 540 552 553 554 542 542 541 553 554 555 543 543 542 554 555 556 544 544 543 555 556 557 545 545 544 556 557 558 546 546 545 557 558 559 547 547 546 558 559 560 548 548 547 559 560 561 549 549 548 560 561 562 550 550 549 561 562 563 551 551 550 562 563 552 540 540 551 563 564 565 553 553 552 564 565 566 554 554 553 565 566 567 555 555 554 566 567 568 556 556 555 567 568 569 557 557 556 568 569 570 558 558 557 569 570 571 559 559 558 570 571 572 560 560 559 571 572 573 561 561 560 572 573 574 562 562 561 573 574 575 563 563 562 574 575 564 552 552 563 575 3 2 565 565 564 3 2 5 566 566 565 2 5 7 567 567 566 5 7 9 568 568 567 7 9 11 569 569 568 9 11 13 570 570 569 11 13 15 571 571 570 13 15 17 572 572 571 15 17 19 573 573 572 17 19 21 574 574 573 19 21 23 575 575 574 21 23 3 564 564 575 23 </p>
        </polylist>
      </mesh>
    </geometry>
  </library_geometries>
  <library_controllers>
  </library_controllers>
  <library_visual_scenes>
    <visual_scene id="empty_2" name="empty_2">
      <node id="gWTorus" name="g Torus" type="NODE">
        <matrix sid="matrix">1 0 0 0 0 1 0 0 0 0 1 0 0 0 0 1</matrix>
        <instance_geometry url="#meshesQ0S">
          <bind_material>
            <technique_common>
              <instance_material symbol="defaultMaterial" target="#Material">
                <bind_vertex_input semantic="CHANNEL0" input_semantic="TEXCOORD" input_set="0"/>
              </instance_material>
            </technique_common>
          </bind_material>
        </instance_geometry>
      </node>
    </visual_scene>
  </library_visual_scenes>
  <scene>
    <instance_visual_scene url="#empty_2" />
  </scene>
</COLLADA>
